<?xml version="1.0" standalone="no"?>
<!DOCTYPE svg PUBLIC "-//W3C//DTD SVG 20010904//EN"
   "http://www.w3.org/TR/2001/REC-SVG-20010904/DTD/svg10.dtd">
<svg version="1.0" xmlns="http://www.w3.org/2000/svg"
   width="512.000000pt" height="512.000000pt" viewBox="0 0 512.000000 512.000000"
   preserveAspectRatio="xMidYMid meet">
   <g transform="translate(0.000000,512.000000) scale(0.100000,-0.100000)"
      fill="#000000" stroke="none">
      <path d="M1360 4547 c-49 -16 -133 -102 -148 -153 -17 -60 -17 -3128 0 -3188
         16 -55 99 -138 154 -154 96 -28 182 -4 247 68 24 26 49 66 55 88 9 28 12 190
         12 576 l0 536 233 0 232 0 480 -480 479 -480 -220 -222 c-231 -234 -244 -252
         -244 -338 0 -124 116 -240 240 -240 86 0 104 13 338 244 l222 220 223 -220
         c233 -231 251 -244 337 -244 124 0 240 116 240 240 0 86 -13 104 -244 338
         l-220 222 220 223 c231 233 244 251 244 337 0 124 -116 240 -240 240 -86 0
         -104 -13 -338 -244 l-222 -220 -340 339 -339 339 127 62 c147 72 259 156 352
         264 372 433 372 1047 0 1480 -167 193 -427 332 -695 370 -99 14 -1139 11
         -1185 -3z m1175 -482 c288 -60 505 -329 505 -625 0 -237 -141 -465 -350 -569
         -136 -67 -171 -71 -617 -71 l-393 0 0 640 0 640 393 0 c305 0 407 -4 462 -15z"/>
   </g>
</svg>